inDegrees=no
num_controls=7
num_derivatives=13
num_iterations=116
num_multipliers=7
num_parameters=0
num_slacks=7
num_states=26
objective=5.340256
objective_accelerations=0.547480
objective_balance=0.048501
objective_effort=0.478322
objective_height=4.204164
objective_ligament=0.061788
solver_duration=1299.773732
status=Solve_Succeeded
success=true
DataType=double
version=3
OpenSimVersion=4.4-2022-07-23-0e9fedc
endheader
time	/jointset/ground_pelvis/pelvis_tilt/value	/jointset/ground_pelvis/pelvis_tx/value	/jointset/ground_pelvis/pelvis_ty/value	/jointset/hip_l/hip_flexion_l/value	/jointset/hip_l/hip_adduction_l/value	/jointset/hip_l/hip_rotation_l/value	/jointset/back/lumbar_extension/value	/jointset/patellofemoral_l/patellar_flexion_l/value	/jointset/knee_l/knee_flexion_l/value	/jointset/knee_l/knee_adduction_l/value	/jointset/knee_l/knee_rotation_l/value	/jointset/ankle_l/ankle_angle_l/value	/jointset/subtalar_l/subtalar_angle_l/value	/jointset/ground_pelvis/pelvis_tilt/speed	/jointset/ground_pelvis/pelvis_tx/speed	/jointset/ground_pelvis/pelvis_ty/speed	/jointset/hip_l/hip_flexion_l/speed	/jointset/hip_l/hip_adduction_l/speed	/jointset/hip_l/hip_rotation_l/speed	/jointset/back/lumbar_extension/speed	/jointset/patellofemoral_l/patellar_flexion_l/speed	/jointset/knee_l/knee_flexion_l/speed	/jointset/knee_l/knee_adduction_l/speed	/jointset/knee_l/knee_rotation_l/speed	/jointset/ankle_l/ankle_angle_l/speed	/jointset/subtalar_l/subtalar_angle_l/speed	/forceset/tau_hip_flexion_l	/forceset/tau_hip_adduction_l	/forceset/tau_hip_rotation_l	/forceset/tau_knee_flexion_l	/forceset/tau_ankle_angle_l	/forceset/tau_subtalar_angle_l	/forceset/tau_lumbar_extension	lambda_cid13_p0	lambda_cid13_p1	lambda_cid13_p2	lambda_cid13_p3	lambda_cid13_p4	lambda_cid13_p5	lambda_cid14_p0	/jointset/ground_pelvis/pelvis_tilt/accel	/jointset/ground_pelvis/pelvis_tx/accel	/jointset/ground_pelvis/pelvis_ty/accel	/jointset/hip_l/hip_flexion_l/accel	/jointset/hip_l/hip_adduction_l/accel	/jointset/hip_l/hip_rotation_l/accel	/jointset/back/lumbar_extension/accel	/jointset/patellofemoral_l/patellar_flexion_l/accel	/jointset/knee_l/knee_flexion_l/accel	/jointset/knee_l/knee_adduction_l/accel	/jointset/knee_l/knee_rotation_l/accel	/jointset/ankle_l/ankle_angle_l/accel	/jointset/subtalar_l/subtalar_angle_l/accel	gamma_cid13_p0	gamma_cid13_p1	gamma_cid13_p2	gamma_cid13_p3	gamma_cid13_p4	gamma_cid13_p5	gamma_cid14_p0
1.5	-0.487696255675321	-0.1037147271708129	0.7643470042490804	1.282918141952462	-0.3099762644495238	-0.08648074107416412	-0.3435136741028559	0.5879851306893209	0.5879851306892966	-0.1740879725733145	0.1740628048001569	-0.05194239794123567	-0.0658387145394177	0.8574211124028812	0.340067387828459	0.4721903769233753	-2.375527623804767	0.06524739217440649	-0.4904670763778473	0.5660130163131418	-1.469790536195291	-1.469790536195533	0.002186044994091144	-0.004595602720603543	-0.009597361869518425	0.0767661503742412	-0.2655911216877377	0.01730193971395546	-0.01878589693529067	-0.1818164417864773	0.1890538919998295	0.03673070894784091	0.2328792699467608	21.06720126140061	-22.25933223062772	6.137251112623031	-7.709862767754212	-610.6456139156336	-56.71368478049594	-33.70216213464337	0.5990180461715902	0.7165628014200046	-0.2369531160155085	-1.531184852568305	0.4266966143787056	-0.1934644700797606	1.664237126117438	-0.923766703934539	-0.9237667039345585	0.02337406826654799	-0.05754832284327448	0.09518324961755824	0.4332000720482689	-2.962147752976866e-08	6.987479696855335e-07	-7.78902449320027e-08	1.423844262740964e-07	1.438130863030809e-07	-1.132443150838691e-07	1.050927672828454e-07
1.51	-0.4790925792701838	-0.1002785327897828	0.7690561678957225	1.259088567352082	-0.3093033068748581	-0.09139547872283621	-0.3377718298805006	0.5732431195694947	0.5732431195693919	-0.1740661050923911	0.1740154479983706	-0.05203366076481819	-0.06505024417792944	0.8631920814017191	0.3471307245810825	0.4695490532204413	-2.390060989085021	0.06934055236599647	-0.4924135889753799	0.5822802670373012	-1.47841032537536	-1.478410325375481	0.002178625836227136	-0.004878151723886496	-0.008644604354516331	0.08092398480658557	-0.2569525518311015	0.01655990970406689	-0.01875965457284246	-0.1808362777450578	0.1873169370671612	0.03584790063084967	0.226308947535003	20.75263112256869	-21.94137399717273	6.224227761460108	-7.43561933195341	-606.2026255420573	-56.92559758485834	-34.40025588742451	0.5478288489818031	0.6951345866738801	-0.2916856750139113	-1.365458465601156	0.3999803243540926	-0.1850963913688241	1.596634877320079	-0.8009021971276649	-0.8009021971097692	-0.01398332979034012	-0.01389788691043235	0.09691093888252632	0.4063752541001911	-3.481450668738949e-08	7.357680230978541e-07	-7.354552325816329e-08	1.475530422697636e-07	1.518562438192082e-07	-1.044731110311101e-07	1.067864470778936e-07
1.52	-0.4704348546706053	-0.09677292194632905	0.7737361255698202	1.23512344987893	-0.30858954677772	-0.09632765184486718	-0.331869579984551	0.5584209471234336	0.558420947123285	-0.1740445484873849	0.1739652077670105	-0.05211507822593827	-0.06422033544706277	0.8682307512902504	0.3539506803131894	0.4663491824143041	-2.40263619835916	0.07340789666981114	-0.4939541710440739	0.598094151031671	-1.485822801438811	-1.485822801438813	0.002123869799247635	-0.005172288640758626	-0.007628289381868697	0.08505382424983214	-0.2483139819745123	0.015817879694078	-0.01873341221004454	-0.1798561137037201	0.1855799821344514	0.03496509231375371	0.219738625123241	20.42857860318495	-21.62312737465408	6.312725343364264	-7.126169497223526	-601.8931258434344	-57.17846590234466	-35.07334406783929	0.4525582241100427	0.6678865973169711	-0.348662536656086	-1.139553651345235	0.4215334368235634	-0.1122783643120508	1.573563780159412	-0.6823040806109083	-0.6823040806110412	0.01390669244339142	-0.0598659055610455	0.1078947411471272	0.427601074228773	-3.996573549932839e-08	7.693463207789115e-07	-6.939923574091116e-08	1.519165715840638e-07	1.596077023552424e-07	-9.481466523909385e-08	1.079242318449695e-07
1.53	-0.4617303977198839	-0.09320039155775967	0.7783813364718299	1.211042377834012	-0.3078352680948501	-0.1012733544016538	-0.3258115991435892	0.5435307386551761	0.5435307386549607	-0.1740237285174965	0.1739120862975942	-0.05218600664032529	-0.06334928988583055	0.8725349461162646	0.3605076747009809	0.4626034249449957	-2.413242131961324	0.07744239050452963	-0.4951242350648403	0.6134159209725648	-1.492009312008919	-1.492009312008912	0.002037616503999179	-0.005450154974238004	-0.00654535797735425	0.08914989773995365	-0.2396632789932031	0.01494837864839508	-0.01873727372156708	-0.17884237548617	0.1838771860393888	0.03398593762495872	0.2131131741002811	20.11081286320508	-21.26689410468988	6.398314742141332	-6.815047647625486	-597.6169161835774	-57.37013714158527	-35.71849094322443	0.4005001403312957	0.6424789161515466	-0.4009341016305051	-0.9706950729933349	0.3934692724782613	-0.1099331793383485	1.498569172652662	-0.5554092665646854	-0.5554092665634991	-0.02011712082347497	-0.01139804756660954	0.1102960893842005	0.3996824121525713	-4.507255144398023e-08	7.992677529955016e-07	-6.546378451503304e-08	1.554246962994117e-07	1.670492307249277e-07	-8.421352509911682e-08	1.084713781448249e-07
1.54	-0.4529866688151967	-0.08956371661398499	0.7829864094492356	1.186865330081418	-0.3070408320905024	-0.106228870150326	-0.3196029834888937	0.5285849481369029	0.5285849481366927	-0.1740038162365418	0.1738562559548631	-0.05224574499075958	-0.06243746920454676	0.8760851420816506	0.3667795913542484	0.4583215974933003	-2.421831339897146	0.081439360966545	-0.4959168094207921	0.6282211137774061	-1.49693921143318	-1.496939211433165	0.001942331996159609	-0.005714063320735192	-0.005390276601606549	0.09320884826002272	-0.2310125760118353	0.01407887760268945	-0.01874113523246014	-0.1778286372687053	0.1821743899443133	0.03300678293613783	0.2064877230773934	19.78332120012982	-20.91004873709387	6.485052442128795	-6.465163565742083	-593.4756279796435	-57.60240796362717	-36.33288592771742	0.301758451984196	0.6108710504125208	-0.4558765331333936	-0.7362085180770681	0.4140287622828438	-0.03678043134911322	1.47024835294881	-0.4309818514415235	-0.430981851441695	0.01210044992511576	-0.05707430816454191	0.12232473539435	0.4201764802183803	-4.550510226580719e-08	8.205111158561495e-07	-7.470810450032006e-08	1.524769122292138e-07	1.800413926584399e-07	-7.481751299482784e-08	1.099439110073335e-07
